<svg id="Layer_1" data-name="Layer 1" xmlns="http://www.w3.org/2000/svg" viewBox="0 0 1200 1200"><defs><style>.cls-1{fill:#fff;}.cls-2{fill:#0aa;}.cls-3{fill:#222;}</style></defs><circle class="cls-1" cx="600" cy="600" r="600"/><path class="cls-2" d="M252.42,1089.12c27.85-146.62,40.82-310.64,35.19-483.35-5.54-169.71-28.46-329.87-64.7-472.48C86.94,243.28,0,411.49,0,600,0,801.82,99.64,980.36,252.42,1089.12Z"/><path class="cls-2" d="M600,0A597.54,597.54,0,0,0,335.31,61.4c139.36,219.45,244.09,578.1,271.5,988.32q5.09,76.1,6.39,150.13C938.47,1192.83,1200,927,1200,600,1200,268.63,931.37,0,600,0Z"/><path class="cls-3" d="M188.6,487.57a85.34,85.34,0,0,1,21.45,2.72,102.72,102.72,0,0,1,22.64,9.25v25.54a102.48,102.48,0,0,0-21.95-10.76,66.88,66.88,0,0,0-21-3.32,49.87,49.87,0,0,0-24.77,6.19,43.26,43.26,0,0,0-17.16,17.44,54.89,54.89,0,0,0-.05,50.28,42.51,42.51,0,0,0,17.12,17.25,50.74,50.74,0,0,0,24.86,6.08,61.31,61.31,0,0,0,20.2-3.32q9.61-3.31,24.25-12V618.5a106.59,106.59,0,0,1-23,10.15,88.64,88.64,0,0,1-24.48,3q-20.34,0-36.36-8.85a63.17,63.17,0,0,1-25.17-25.49A74.28,74.28,0,0,1,116,560.88q0-21.21,9.43-38.11a65.85,65.85,0,0,1,26-26Q167.89,487.59,188.6,487.57Z"/><path class="cls-3" d="M312.46,487.57a72,72,0,0,1,35.94,9,66.06,66.06,0,0,1,25.45,25.95,77.2,77.2,0,0,1,.23,73.71,66.48,66.48,0,0,1-25.4,26.14q-16.15,9.3-36.41,9.3A71.21,71.21,0,0,1,276,622.22a66.64,66.64,0,0,1-25.45-26,74.47,74.47,0,0,1-9.11-36.56,75.62,75.62,0,0,1,9.11-36.3A66.1,66.1,0,0,1,275.64,497Q291.65,487.57,312.46,487.57Zm-45.38,72.1a53.66,53.66,0,0,0,5.8,25.14A42.25,42.25,0,0,0,289,602.11a45.07,45.07,0,0,0,23.43,6.13q19.79,0,32.53-13.57t12.75-35A54.47,54.47,0,0,0,352,534.48a41.77,41.77,0,0,0-16.2-17.34,47.95,47.95,0,0,0-47,.05,41.29,41.29,0,0,0-16.06,17.29A55.14,55.14,0,0,0,267.08,559.67Z"/><path class="cls-3" d="M422,489.38V608.64h62.41v21.22H397.19V489.38Z"/><path class="cls-3" d="M512.21,489.38v81.76q0,12.57,3.45,20a28.43,28.43,0,0,0,11.28,12.27,34,34,0,0,0,18.22,4.82q11.42,0,19.38-4.57a27.68,27.68,0,0,0,11.64-12.47q3.68-7.89,3.68-21.87v-80h24.85v83.47q0,28.35-15.55,43.59t-44,15.23q-17.85,0-31-6.94a46.88,46.88,0,0,1-20-20.06q-6.9-13.12-6.9-30.82V489.38Z"/><path class="cls-3" d="M645.09,489.38l42.24,55.41,42.25-55.41h22.19V629.86H726.91V531.22h-.73L689,580.69h-3.5l-37.18-49.47h-.74v98.64H622.72V489.38Z"/><path class="cls-3" d="M817.82,489.38q17.67,0,28.81,10.06a32.46,32.46,0,0,1,11.13,25.14,31.14,31.14,0,0,1-4.64,17,32.23,32.23,0,0,1-13.49,11.67v1.2q13.44,3.33,20.94,13.13a36.71,36.71,0,0,1,7.5,23,40,40,0,0,1-5.47,20.87,34.76,34.76,0,0,1-15.19,13.83q-9.72,4.62-22.87,4.62H770.69V489.38Zm-6.63,58.33q9.84,0,15.55-5.13t5.71-14.28q0-8.14-5.24-12.92T813.4,510.6H795.54v37.11Zm5.8,60.93q12.6,0,19-5.18t6.44-15.23q0-9-6.39-14.13t-17.17-5.18H795.54v39.72Z"/><path class="cls-3" d="M903.56,489.38v81.76q0,12.57,3.46,20a28.46,28.46,0,0,0,11.27,12.27,34.08,34.08,0,0,0,18.23,4.82q11.41,0,19.37-4.57a27.7,27.7,0,0,0,11.65-12.47q3.68-7.89,3.68-21.87v-80h24.85v83.47q0,28.35-15.56,43.59t-44,15.23q-17.87,0-31-6.94a46.93,46.93,0,0,1-20-20.06q-6.9-13.12-6.9-30.82V489.38Z"/><path class="cls-3" d="M1051.35,487.57a70.26,70.26,0,0,1,36.18,10.26V522q-20-13.17-35.44-13.17-9.39,0-14.68,4a12.61,12.61,0,0,0-5.3,10.61q0,7.95,9.85,14.68,2.76,2,21.26,11.27,15.84,8.14,22.83,18.1t7,23.93q0,18.1-11.92,29.21t-30.88,11.11a67.5,67.5,0,0,1-21.22-3,88.81,88.81,0,0,1-19.93-10.21V591.75q20.62,18.71,38.85,18.7,9.1,0,14.72-4.32a13.73,13.73,0,0,0,5.62-11.46q0-9.75-9.76-15.89-8.1-4.83-20.89-11.57-15.2-7.53-22.69-17.59a38,38,0,0,1-7.5-23.33q0-17.7,12-28.21T1051.35,487.57Z"/><path class="cls-3" d="M769.18,812.19v5.49q.62,27.59,5.69,38.8t21.75,11.22q16.51,0,21.82-12.26,3.18-7.28,3.18-24.53V664.56h49.7V830.1q0,30.35-10.26,48.09-17.35,30-62.63,30t-60.74-24.29q-15.47-24.27-15.46-66.23v-5.49Z"/><path class="cls-3" d="M943.22,829q2.29,16.31,9.06,24.37Q964.63,868,994.62,868q18,0,29.16-3.87,21.26-7.42,21.25-27.59,0-11.77-10.41-18.24-10.41-6.29-33-11.13l-25.75-5.65q-38-8.38-52.16-18.23-24-16.45-24-51.47,0-32,23.52-53.09t69.1-21.13q38,0,64.92,19.92t28.18,57.85h-47.76q-1.33-21.46-19.19-30.5-11.91-6-29.61-6-19.68,0-31.43,7.75t-11.74,21.62q0,12.75,11.58,19,7.44,4.2,31.59,9.84l41.74,9.84q27.43,6.47,41.14,17.27,21.25,16.79,21.26,48.57,0,32.6-25.2,54.13t-71.18,21.54q-47,0-73.88-21.22T895.78,829Z"/></svg>