<svg id="Layer_1" data-name="Layer 1" xmlns="http://www.w3.org/2000/svg" viewBox="0 0 1200 1200"><defs><style>.cls-1{fill:#fff;}.cls-2{fill:#0aa;}.cls-3{font-size:205.94px;font-family:GillSans-SemiBold, Gill Sans;font-weight:600;letter-spacing:-0.06em;}.cls-3,.cls-7{fill:#222;}.cls-4{letter-spacing:-0.05em;}.cls-5{letter-spacing:-0.07em;}.cls-6{letter-spacing:-0.05em;}.cls-7{font-size:330.45px;font-family:Helvetica-Bold, Helvetica;font-weight:700;letter-spacing:-0.05em;}</style></defs><circle class="cls-1" cx="600" cy="600" r="600"/><path class="cls-2" d="M252.42,1089.12c27.85-146.62,40.82-310.64,35.19-483.35-5.54-169.71-28.46-329.87-64.7-472.48C86.94,243.28,0,411.49,0,600,0,801.82,99.64,980.36,252.42,1089.12Z"/><path class="cls-2" d="M600,0A597.54,597.54,0,0,0,335.31,61.4c139.36,219.45,244.09,578.1,271.5,988.32q5.09,76.1,6.39,150.13C938.47,1192.83,1200,927,1200,600,1200,268.63,931.37,0,600,0Z"/><text class="cls-3" transform="translate(106.95 629.86) scale(0.92 1)">C<tspan class="cls-4" x="137.02" y="0">O</tspan><tspan class="cls-5" x="301.59" y="0">L</tspan><tspan class="cls-6" x="401.1" y="0">UMBUS</tspan></text><text class="cls-7" transform="translate(714.97 902.39)">JS</text></svg>